<?xml version="1.0" standalone="no"?><!DOCTYPE svg PUBLIC "-//W3C//DTD SVG 1.1//EN" "http://www.w3.org/Graphics/SVG/1.1/DTD/svg11.dtd"><svg class="icon" width="200px" height="200.00px" viewBox="0 0 1024 1024" version="1.1" xmlns="http://www.w3.org/2000/svg"><path fill="#51E886" d="M19.3 510.8h-7c0-56.2 9.3-111.3 27.6-163.9 17.7-50.8 43.4-98.2 76.5-141l5.5 4.3c-32.6 42.1-58 88.9-75.4 139-18.1 51.9-27.2 106.2-27.2 161.6zM510.8 1009.4c-35.7 0-71.3-3.8-105.9-11.3l1.5-6.8c34.1 7.4 69.2 11.1 104.4 11.1 89.3 0 176.8-24.2 252.9-70l3.6 6c-77.2 46.4-165.9 71-256.5 71zM983.4 375.2c-18.3-63.9-49-122.7-91.2-174.5-41.8-51.3-92.5-93.1-150.7-124.1l3.3-6.2c59.1 31.5 110.5 73.8 152.9 125.9 42.8 52.6 73.9 112.1 92.5 177l-6.8 1.9z"  /><path fill="#51E886" d="M124 220l-15.2-11.4c1-1.4 2.1-2.7 3.1-4.1l15.1 11.6-3 3.9zM130 212.2l-14.9-11.7c2.1-2.7 4.3-5.4 6.4-8l14.7 12c-2.1 2.5-4.2 5.1-6.2 7.7z m9.4-11.6l-14.6-12.2c2.2-2.6 4.4-5.3 6.7-7.8l14.3 12.5c-2.2 2.5-4.3 5-6.4 7.5z m9.7-11.2l-14.2-12.6c2.3-2.6 4.6-5.1 6.9-7.6l13.9 12.9c-2.2 2.4-4.5 4.8-6.6 7.3z m10-11l-13.8-13.1c2.3-2.5 4.7-5 7.1-7.4l13.5 13.3c-2.2 2.5-4.5 4.9-6.8 7.2z m10.4-10.6l-13.4-13.5c2.4-2.4 4.9-4.8 7.4-7.2l13.1 13.7c-2.4 2.4-4.8 4.7-7.1 7z m10.7-10.3l-13-13.9c2.5-2.3 5-4.7 7.6-7l12.7 14.1c-2.5 2.3-4.9 4.5-7.3 6.8z m10.9-10l-12.6-14.3c2.6-2.3 5.2-4.5 7.8-6.7l12.3 14.5c-2.5 2.2-5 4.3-7.5 6.5z m11.3-9.6l-12.1-14.6c2.6-2.2 5.3-4.4 8-6.5l11.8 14.9c-2.6 2-5.1 4.1-7.7 6.2z m11.6-9.3l-11.7-15c2.7-2.1 5.4-4.2 8.2-6.2l11.4 15.2c-2.7 1.9-5.3 4-7.9 6z m11.9-9l-11.2-15.3 8.4-6 10.9 15.6c-2.8 1.9-5.5 3.8-8.1 5.7z m12.1-8.5l-10.7-15.7c2.8-1.9 5.7-3.9 8.5-5.7l10.4 15.9c-2.7 1.8-5.5 3.6-8.2 5.5z m12.4-8.2l-10.2-16c2.9-1.8 5.8-3.7 8.7-5.5l9.9 16.2c-2.9 1.7-5.7 3.5-8.4 5.3z m12.6-7.8l-9.8-16.3c2.9-1.7 5.9-3.5 8.9-5.2l9.4 16.5c-2.9 1.6-5.7 3.3-8.5 5z m12.8-7.5L266.6 71c3-1.7 6-3.3 9-4.9l8.9 16.8c-2.9 1.5-5.8 3.1-8.7 4.7z m13.1-7l-8.7-16.9c3-1.6 6.1-3.1 9.2-4.6l8.4 17c-3 1.5-6 3-8.9 4.5z m13.2-6.6l-8.2-17.1c3.1-1.5 6.2-2.9 9.3-4.4l7.9 17.3-9 4.2z m13.5-6.2l-7.7-17.4c3.1-1.4 6.3-2.8 9.4-4.1l7.3 17.5c-2.9 1.3-6 2.7-9 4z m13.7-5.8l-7.2-17.6c3.2-1.3 6.4-2.6 9.6-3.8l6.8 17.7c-3.1 1.2-6.2 2.5-9.2 3.7z m13.8-5.4l-6.6-17.8c3.2-1.2 6.4-2.4 9.7-3.5l6.2 17.9c-3.1 1.2-6.3 2.3-9.3 3.4z m13.9-4.9l-6.1-18c3.2-1.1 6.5-2.2 9.8-3.2l5.7 18.1c-3.1 1-6.3 2-9.4 3.1z m14.1-4.5L365.6 29c3.3-1 6.6-2 9.9-2.9l5.1 18.3c-3.1 0.9-6.3 1.8-9.5 2.8z m14.3-4.1l-4.9-18.3c3.3-0.9 6.6-1.7 9.9-2.6l4.6 18.4c-3.2 0.8-6.4 1.7-9.6 2.5z m244.8-2.2c-3.2-0.8-6.4-1.6-9.6-2.3l4.2-18.5c3.3 0.8 6.7 1.6 10 2.4l-4.6 18.4z m-230.5-1.4L395.4 21c3.3-0.8 6.7-1.5 10-2.3l4 18.6c-3.2 0.7-6.5 1.4-9.7 2.2z m216-1.9c-3.2-0.7-6.5-1.4-9.7-2l3.7-18.6c3.4 0.7 6.7 1.4 10.1 2.1l-4.1 18.5z m-201.5-1.3l-3.8-18.6c3.3-0.7 6.7-1.3 10.1-2l3.4 18.7c-3.2 0.6-6.5 1.2-9.7 1.9z m187-1.7c-3.2-0.6-6.5-1.2-9.8-1.7l3.1-18.7c3.4 0.6 6.8 1.2 10.1 1.8l-3.4 18.6z m-172.5-1l-3.2-18.7c3.4-0.6 6.8-1.1 10.2-1.6l2.8 18.8c-3.2 0.4-6.5 0.9-9.8 1.5z m157.8-1.5c-3.2-0.5-6.5-1-9.8-1.4l2.5-18.8c3.4 0.5 6.8 0.9 10.2 1.5l-2.9 18.7z m-143.1-0.9l-2.7-18.8c3.4-0.5 6.8-0.9 10.2-1.3l2.3 18.9c-3.2 0.4-6.5 0.8-9.8 1.2z m128.4-1.1c-3.3-0.4-6.6-0.8-9.8-1.1l1.9-18.9c3.4 0.3 6.8 0.7 10.2 1.2l-2.3 18.8z m-113.6-0.7l-2.1-18.9c3.4-0.4 6.8-0.7 10.2-1l1.7 18.9c-3.3 0.3-6.6 0.6-9.8 1z m98.8-0.9c-3.3-0.3-6.6-0.6-9.9-0.8l1.4-19c3.4 0.2 6.9 0.5 10.3 0.8l-1.8 19z m-84.1-0.5l-1.5-18.9c3.4-0.3 6.9-0.5 10.3-0.7l1.1 19c-3.3 0.1-6.6 0.3-9.9 0.6z m69.3-0.6c-3.3-0.2-6.6-0.4-9.9-0.5l0.8-19c3.4 0.1 6.9 0.3 10.3 0.5l-1.2 19z m-54.4-0.4l-0.9-19c3.4-0.2 6.9-0.3 10.3-0.4l0.5 19c-3.3 0.2-6.6 0.3-9.9 0.4z m39.6-0.3c-3.3-0.1-6.6-0.2-9.9-0.2l0.2-19c3.4 0 6.9 0.1 10.3 0.2l-0.6 19z m-24.8-0.2l-0.4-19c3.2-0.1 6.5-0.1 9.7-0.1h0.6v19h-0.5c-3.2 0.1-6.3 0.1-9.4 0.1zM640.2 43.6c-1.6-0.4-3.2-0.9-4.7-1.3l4.8-18.4c1.6 0.4 3.3 0.9 4.9 1.3l-5 18.4zM410.3 1006.3c-1.7-0.3-3.3-0.7-5-1l4-18.6c1.6 0.3 3.2 0.7 4.8 1l-3.8 18.6zM400.3 1004.2c-3.3-0.7-6.6-1.5-9.9-2.4l4.6-18.4c3.2 0.8 6.4 1.5 9.6 2.3l-4.3 18.5z m-14.9-3.7l-9.9-2.7 5.1-18.3c3.1 0.9 6.4 1.7 9.5 2.6l-4.7 18.4z m-14.9-4c-3.3-1-6.6-2-9.8-3l5.7-18.1c3.1 1 6.3 1.9 9.4 2.9l-5.3 18.2z m-14.7-4.6c-3.3-1.1-6.5-2.2-9.7-3.3l6.2-17.9c3.1 1.1 6.2 2.1 9.4 3.1l-5.9 18.1z m-14.5-5c-3.2-1.1-6.4-2.3-9.6-3.6l6.8-17.7c3.1 1.2 6.2 2.3 9.3 3.4l-6.5 17.9z m-14.4-5.4c-3.2-1.2-6.3-2.5-9.5-3.9l7.3-17.5c3 1.3 6.1 2.5 9.1 3.7l-6.9 17.7z m-14.2-5.8c-3.1-1.3-6.3-2.7-9.4-4.1l7.9-17.3c3 1.4 6 2.7 9 4l-7.5 17.4z m-14.1-6.3c-3.1-1.4-6.2-2.9-9.2-4.4l8.4-17c2.9 1.4 5.9 2.9 8.9 4.3l-8.1 17.1z m-13.8-6.8c-3-1.5-6.1-3.1-9.1-4.7l8.9-16.8c2.9 1.5 5.8 3.1 8.8 4.5l-8.6 17z m-13.6-7.1c-3-1.6-6-3.3-8.9-5l9.4-16.5c2.9 1.6 5.8 3.2 8.6 4.8l-9.1 16.7z m-13.4-7.5c-2.9-1.7-5.9-3.5-8.8-5.3l9.9-16.2c2.8 1.7 5.6 3.4 8.5 5.1l-9.6 16.4z m-13.1-8c-2.9-1.8-5.8-3.7-8.6-5.5l10.4-15.9c2.7 1.8 5.5 3.6 8.3 5.3L244.7 940z m-12.9-8.3c-2.8-1.9-5.6-3.8-8.4-5.8l10.9-15.6c2.7 1.9 5.4 3.8 8.1 5.6l-10.6 15.8z m-12.6-8.8c-2.8-2-5.6-4-8.3-6l11.4-15.2c2.6 1.9 5.3 3.9 8 5.8l-11.1 15.4z m-12.4-9.1l-8.1-6.3 11.8-14.9c2.6 2 5.2 4.1 7.8 6l-11.5 15.2z m-12.1-9.4c-2.6-2.1-5.3-4.3-7.9-6.5l12.2-14.5c2.5 2.1 5 4.2 7.6 6.3l-11.9 14.7z m-11.7-9.9c-2.6-2.2-5.2-4.5-7.7-6.8l12.7-14.1c2.4 2.2 4.9 4.4 7.4 6.5L183 894.5z m-11.5-10.1c-2.5-2.3-5-4.6-7.5-7l13.1-13.8c2.4 2.2 4.8 4.5 7.2 6.7l-12.8 14.1z m-11.2-10.6c-2.5-2.4-4.9-4.8-7.3-7.2l13.5-13.4c2.3 2.3 4.6 4.6 7 6.9l-13.2 13.7zM149.5 863c-2.4-2.4-4.7-4.9-7-7.4l13.9-12.9c2.2 2.4 4.5 4.8 6.8 7.1L149.5 863zM139 851.8c-2.3-2.5-4.6-5.1-6.8-7.6l14.3-12.5c2.2 2.5 4.4 4.9 6.6 7.3L139 851.8z m-10.2-11.5l-6.6-7.8 14.7-12.1c2.1 2.5 4.2 5.1 6.3 7.5l-14.4 12.4z m-9.8-11.7c-2.1-2.6-4.3-5.3-6.3-8l15-11.6c2 2.6 4 5.2 6.1 7.7L119 828.6z m-9.4-12.1c-2.1-2.7-4.1-5.5-6.1-8.2l15.4-11.2c1.9 2.6 3.9 5.3 5.9 7.9l-15.2 11.5z m-9.1-12.4c-2-2.8-3.9-5.6-5.8-8.4l15.7-10.7c1.8 2.7 3.7 5.4 5.6 8.1l-15.5 11z m-8.7-12.6c-1.9-2.8-3.8-5.7-5.6-8.6l16-10.2c1.7 2.7 3.6 5.5 5.4 8.2l-15.8 10.6z m-8.3-12.8c-1.8-2.9-3.6-5.8-5.3-8.7l16.3-9.7 5.1 8.4-16.1 10z m-7.9-13.2c-1.7-2.9-3.4-5.9-5-8.9l16.6-9.2c1.6 2.8 3.2 5.7 4.9 8.5l-16.5 9.6z m-7.5-13.3l-4.8-9 16.9-8.7c1.5 2.9 3 5.8 4.6 8.7l-16.7 9zM61 738.6c-1.5-3-3-6.1-4.5-9.2l17.1-8.2c1.4 2.9 2.9 5.9 4.3 8.8L61 738.6z m-6.6-13.7l-4.2-9.3 17.4-7.7c1.3 3 2.7 6 4.1 8.9l-17.3 8.1z m-6.3-14c-1.3-3.1-2.7-6.3-3.9-9.4l17.6-7.1c1.2 3 2.5 6.1 3.8 9.1l-17.5 7.4z m-5.8-14.1c-1.2-3.1-2.5-6.4-3.6-9.5l17.8-6.6c1.1 3 2.3 6.1 3.5 9.2l-17.7 6.9z m-5.4-14.3c-1.1-3.2-2.3-6.4-3.3-9.6l18-6c1 3.1 2.1 6.2 3.2 9.3l-17.9 6.3zM32 668c-1-3.2-2.1-6.5-3.1-9.8l18.2-5.5c0.9 3.1 1.9 6.3 2.9 9.4L32 668z m-4.5-14.7c-1-3.3-1.9-6.6-2.8-9.8l18.3-4.9c0.8 3.1 1.7 6.3 2.7 9.5l-18.2 5.2z m-4.1-14.8c-0.8-3.3-1.7-6.6-2.5-9.9l18.5-4.4c0.8 3.2 1.5 6.4 2.4 9.6l-18.4 4.7z m-3.6-14.9c-0.7-3.3-1.5-6.7-2.2-10l18.6-3.8 2.1 9.6-18.5 4.2z m-3.2-15c-0.6-3.3-1.3-6.7-1.8-10.1l18.7-3.2c0.6 3.2 1.2 6.5 1.8 9.7l-18.7 3.6zM14 593.5c-0.5-3.4-1.1-6.8-1.5-10.1l18.8-2.7c0.5 3.2 1 6.5 1.5 9.7L14 593.5z m-2.3-15.2c-0.4-3.4-0.9-6.8-1.2-10.2l18.9-2.1c0.4 3.2 0.8 6.5 1.2 9.8l-18.9 2.5zM10 563.1l-0.9-10.2 18.9-1.5c0.3 3.3 0.6 6.5 0.9 9.8L10 563.1z m-1.3-15.3l-0.6-10.2 19-0.9c0.2 3.3 0.4 6.6 0.6 9.8l-19 1.3z m-0.9-15.3l-0.3-10.2 19-0.4c0.1 3.3 0.2 6.6 0.3 9.8l-19 0.8zM7.4 517.1V512h19v4.9l-19 0.2zM988.4 417.9c-0.3-1.6-0.6-3.2-1-4.8l18.6-3.8c0.3 1.7 0.7 3.3 1 5l-18.6 3.6zM781.9 938.4l-10.2-16c2.7-1.7 5.5-3.5 8.2-5.3l10.5 15.8c-2.9 1.8-5.7 3.7-8.5 5.5z m12.6-8.3l-10.7-15.7c2.7-1.8 5.3-3.7 8-5.5l11 15.5c-2.7 1.9-5.5 3.8-8.3 5.7z m12.4-8.7L795.8 906c2.6-1.9 5.2-3.8 7.8-5.8l11.4 15.2c-2.6 2-5.4 4-8.1 6z m12.2-9.1l-11.6-15.1c2.6-2 5.1-4 7.6-6L827 906c-2.6 2.2-5.3 4.3-7.9 6.3z m11.8-9.4l-12-14.7c2.5-2 5-4.1 7.5-6.2l12.3 14.5c-2.6 2.2-5.2 4.3-7.8 6.4z m11.6-9.7L830 878.9c2.4-2.1 4.9-4.3 7.3-6.4l12.7 14.1c-2.4 2.1-5 4.4-7.5 6.6z m11.3-10.1l-12.9-14c2.4-2.2 4.7-4.4 7.1-6.7l13.2 13.7c-2.5 2.4-5 4.7-7.4 7z m11-10.4l-13.3-13.6 6.9-6.9 13.6 13.3-7.2 7.2z m10.6-10.8l-13.7-13.2c2.2-2.3 4.5-4.7 6.7-7.1l13.9 12.9c-2.2 2.6-4.6 5-6.9 7.4z m10.4-11l-14.1-12.8c2.2-2.4 4.4-4.9 6.5-7.3l14.3 12.5c-2.2 2.5-4.5 5.1-6.7 7.6z m10-11.4l-14.4-12.3c2.1-2.4 4.2-4.9 6.2-7.5l14.7 12c-2.2 2.7-4.4 5.3-6.5 7.8z m9.6-11.7l-14.8-11.9c2-2.5 4-5.1 6-7.6l15 11.6c-2 2.7-4.1 5.3-6.2 7.9z m9.4-11.9l-15.2-11.5c2-2.6 3.9-5.2 5.8-7.8l15.4 11.2-6 8.1z m8.9-12.2l-15.5-11c1.9-2.6 3.7-5.3 5.5-8l15.7 10.7c-1.8 2.7-3.8 5.5-5.7 8.3z m8.6-12.5l-15.8-10.5c1.8-2.7 3.6-5.5 5.3-8.2l16 10.2c-1.8 2.8-3.6 5.7-5.5 8.5z m8.2-12.8l-16.1-10c1.7-2.8 3.4-5.5 5.1-8.3l16.3 9.7c-1.8 2.9-3.5 5.8-5.3 8.6z m7.8-12.9l-16.4-9.6c1.6-2.8 3.2-5.6 4.8-8.5l16.6 9.2c-1.6 3-3.3 6-5 8.9z m7.4-13.3l-16.7-9.1c1.5-2.8 3.1-5.7 4.6-8.6l16.9 8.7c-1.6 3.1-3.2 6.1-4.8 9z m7.1-13.4l-17-8.6c1.5-2.9 2.9-5.8 4.3-8.7l17.1 8.2c-1.4 3-2.9 6.1-4.4 9.1z m6.6-13.6l-17.2-8c1.4-2.9 2.7-5.9 4-8.9l17.4 7.7c-1.4 3-2.8 6.1-4.2 9.2z m6.2-13.9l-17.5-7.5c1.3-3 2.5-6 3.8-9l17.6 7.2-3.9 9.3z m5.8-14l-17.7-7c1.2-3 2.4-6.1 3.5-9.1l17.8 6.6c-1.2 3.2-2.4 6.4-3.6 9.5z m5.4-14.2l-17.9-6.4c1.1-3.1 2.2-6.1 3.2-9.2l18 6.1c-1.1 3.1-2.2 6.3-3.3 9.5z m4.9-14.4l-18.1-5.9c1-3.1 2-6.2 2.9-9.3l18.2 5.5c-1 3.3-2 6.5-3 9.7z m4.5-14.5l-18.2-5.3c0.9-3.1 1.8-6.3 2.6-9.4l18.3 5c-0.9 3.2-1.8 6.5-2.7 9.7z m4-14.6l-18.4-4.8c0.8-3.1 1.6-6.3 2.4-9.5l18.5 4.4c-0.8 3.3-1.6 6.6-2.5 9.9z m3.6-14.8l-18.5-4.2c0.7-3.1 1.4-6.3 2.1-9.5l18.6 3.9c-0.7 3.2-1.4 6.6-2.2 9.8z m3.2-14.8l-18.6-3.7 1.8-9.6 18.7 3.3c-0.6 3.3-1.3 6.7-1.9 10z m2.7-15l-18.7-3.1 1.5-9.6 18.8 2.7c-0.5 3.3-1 6.7-1.6 10z m2.3-15l-18.8-2.5 1.2-9.6 18.9 2.2c-0.5 3.3-0.9 6.6-1.3 9.9z m1.7-15l-18.9-2c0.3-3.2 0.6-6.5 0.9-9.7l18.9 1.6c-0.2 3.4-0.5 6.8-0.9 10.1z m1.4-15.1l-18.9-1.4c0.2-3.2 0.4-6.5 0.6-9.7l19 1c-0.2 3.4-0.5 6.8-0.7 10.1z m0.9-15.1l-19-0.8c0.1-3.2 0.3-6.5 0.3-9.7l19 0.5c0 3.3-0.2 6.7-0.3 10z m0.4-15.1l-19-0.3c0-2.5 0.1-4.9 0.1-7.4v-2.3l19-0.1v2.4c0 2.6 0 5.1-0.1 7.7z m-19-14.9c0-3.2-0.1-6.5-0.2-9.7l19-0.6c0.1 3.3 0.2 6.7 0.2 10.1l-19 0.2z m-0.4-14.6c-0.1-3.2-0.3-6.5-0.5-9.7l19-1.2c0.2 3.3 0.4 6.7 0.5 10.1l-19 0.8z m-0.8-14.5c-0.2-3.2-0.5-6.5-0.8-9.7l18.9-1.8c0.3 3.3 0.6 6.7 0.8 10.1l-18.9 1.4z m-1.3-14.5c-0.3-3.2-0.7-6.5-1.1-9.7l18.9-2.3c0.4 3.3 0.8 6.7 1.1 10l-18.9 2z m-1.8-14.5c-0.4-3.2-0.9-6.4-1.4-9.6l18.8-2.9c0.5 3.3 1 6.7 1.4 10l-18.8 2.5z m-2.1-14.4c-0.5-3.2-1.1-6.4-1.7-9.6l18.7-3.5c0.6 3.3 1.2 6.6 1.7 9.9l-18.7 3.2zM773.5 943.5l-9.9-16.2c1.4-0.8 2.8-1.7 4.2-2.6l10 16.1c-1.4 1-2.8 1.8-4.3 2.7z"  /><path fill="#51E886" d="M981.2 387c-0.4-1.6-0.8-3.2-1.3-4.7l18.3-5.1c0.5 1.6 0.9 3.3 1.3 4.9l-18.3 4.9zM985.2 403c-0.8-3.6-1.7-7.2-2.6-10.7l18.4-4.7 2.7 11.1-18.5 4.3zM987.4 413.1c-0.3-1.6-0.7-3.2-1-4.8l18.6-4c0.4 1.7 0.7 3.3 1.1 5l-18.7 3.8z"  /><path fill="#51E886" d="M644.9 44.9c-1.6-0.4-3.1-0.9-4.7-1.3l5-18.3c1.6 0.4 3.3 0.9 4.9 1.4l-5.2 18.2zM729.6 77.9c-3-1.5-6.1-3-9.1-4.4l8.2-17.2c3.2 1.5 6.3 3.1 9.4 4.6l-8.5 17zM716 71.3c-3-1.4-6.1-2.8-9.2-4.2l7.6-17.4c3.2 1.4 6.4 2.9 9.6 4.3l-8 17.3z m-13.9-6.2c-3.1-1.3-6.2-2.6-9.4-3.9l7.1-17.6c3.2 1.3 6.5 2.7 9.7 4l-7.4 17.5zM688 59.4c-3.2-1.2-6.3-2.4-9.5-3.6L685 38c3.3 1.2 6.6 2.4 9.8 3.7L688 59.4z m-14.2-5.3l-9.6-3.3 6-18c3.3 1.1 6.7 2.2 10 3.4l-6.4 17.9z m-14.4-4.9c-3.2-1-6.5-2-9.7-3l5.4-18.2c3.3 1 6.7 2 10.1 3.1l-5.8 18.1zM738.5 82.4c-1.4-0.8-2.9-1.5-4.3-2.3l8.7-16.9 4.5 2.4-8.9 16.8z"  /><path fill="#51E886" d="M122.1 706.7c-30.8-61.1-46.5-127-46.5-195.9 0-58.8 11.5-115.7 34.2-169.4 21.9-51.8 53.3-98.4 93.3-138.3s86.5-71.3 138.3-93.3c53.7-22.7 110.7-34.2 169.4-34.2 71 0 141.4 17.5 203.6 50.5 60.3 32 113 78.4 152.4 134.3l-5.7 4c-38.8-55-90.6-100.7-149.9-132.2-61.3-32.5-130.5-49.7-200.4-49.7-57.8 0-113.9 11.3-166.7 33.6-51 21.6-96.8 52.4-136.1 91.8S137.8 293 116.2 344c-22.3 52.9-33.6 109-33.6 166.8 0 67.8 15.4 132.6 45.7 192.7l-6.2 3.2z"  /><path fill="#51E886" d="M858 275.4c-2-2.9-4-5.9-6-8.8l22.9-16.2c2.2 3.1 4.4 6.2 6.4 9.4L858 275.4zM510.8 953.4h-4l0.3-28c7.1 0.1 14.4-0.1 21.5-0.4l1.2 28c-6.4 0.3-12.7 0.4-19 0.4z m-14.4-0.2c-7.6-0.2-15.3-0.7-22.9-1.3l2.3-27.9c7.1 0.6 14.3 1 21.5 1.2l-0.9 28z m43.7-0.7l-1.8-27.9c7.1-0.5 14.3-1.1 21.4-1.9l3.2 27.8c-7.5 0.8-15.2 1.5-22.8 2z m-77-1.6c-7.6-0.8-15.2-1.8-22.7-3l4.4-27.7c7 1.1 14.2 2.1 21.3 2.8l-3 27.9z m110.2-1.8l-3.9-27.7c7.1-1 14.2-2.2 21.2-3.5l5.3 27.5c-7.5 1.3-15.1 2.6-22.6 3.7z m-143.2-3c-7.5-1.4-15.1-3-22.5-4.7l6.5-27.2c6.9 1.6 14 3.1 21 4.4l-5 27.5z m176-2.9l-6-27.4c7-1.5 14-3.2 20.9-5.1l7.4 27c-7.4 2-14.9 3.9-22.3 5.5z m-208.6-4.3c-7.4-1.9-14.8-4.1-22-6.4l8.5-26.7c6.8 2.2 13.7 4.2 20.7 6l-7.2 27.1z m240.9-4l-8-26.8c6.8-2 13.7-4.3 20.4-6.7l9.4 26.4c-7.2 2.5-14.5 4.9-21.8 7.1z m-272.9-5.7c-7.2-2.5-14.4-5.2-21.5-8l10.5-26c6.6 2.7 13.4 5.2 20.1 7.5l-9.1 26.5z m304.5-5L660 898c6.6-2.5 13.3-5.3 19.8-8.2l11.3 25.6c-6.9 3.1-14.1 6-21.1 8.8z m-335.6-7.1c-7-3-14-6.3-20.8-9.6l12.4-25.1c6.4 3.2 13 6.2 19.5 9l-11.1 25.7z m366.2-6l-11.9-25.3c6.4-3 12.9-6.3 19.2-9.6l13.2 24.7c-6.8 3.5-13.7 7-20.5 10.2z m-396.3-8.3c-6.7-3.5-13.5-7.3-20-11.2l14.3-24.1c6.1 3.6 12.5 7.2 18.8 10.5l-13.1 24.8z m425.8-7l-13.8-24.4c6.2-3.5 12.4-7.2 18.4-11.1l15 23.6c-6.3 4.2-13 8.2-19.6 11.9z m-454.8-9.6c-6.5-4-12.9-8.3-19.1-12.6l16-23c5.9 4.1 11.9 8.1 17.9 11.8l-14.8 23.8z m483.2-7.9L742.9 855c5.9-4 11.8-8.1 17.5-12.4l16.7 22.4c-6 4.6-12.3 9.1-18.6 13.3z m-510.8-10.8c-6.1-4.5-12.2-9.2-18.1-14l17.7-21.7c5.5 4.5 11.3 8.9 17 13.1l-16.6 22.6z m537.7-8.7l-17.3-22c5.6-4.4 11.2-9 16.6-13.7l18.4 21.1c-5.7 5-11.7 9.9-17.7 14.6z m-563.9-12c-5.8-4.9-11.5-10.1-17-15.3l19.2-20.3c5.2 4.9 10.6 9.7 16 14.4l-18.2 21.2z m589.4-9.5L792 816.6c5.3-4.8 10.5-9.8 15.5-14.9l19.9 19.7c-5.3 5.4-10.9 10.7-16.5 15.9zM197 824.2c-5.4-5.4-10.7-10.9-15.9-16.6l20.7-18.8c4.8 5.3 9.8 10.5 14.9 15.5L197 824.2z m637.7-10.3l-20.3-19.2c4.9-5.2 9.7-10.6 14.4-16l21.3 18.2c-5 5.7-10.2 11.5-15.4 17z m-660.5-14.1c-5-5.7-9.9-11.7-14.6-17.7l22.1-17.3c4.4 5.6 9 11.2 13.7 16.6l-21.2 18.4z m682.5-10.9L835 771.2c4.5-5.5 8.9-11.3 13.1-17l22.6 16.5c-4.5 6.1-9.2 12.2-14 18.2z m-703.4-15c-4.5-6.1-9-12.4-13.2-18.7l23.3-15.6c4 5.9 8.1 11.8 12.4 17.5l-22.5 16.8z m723.5-11.7l-23-16c4.1-5.9 8.1-11.9 11.8-18l23.8 14.8c-4 6.5-8.3 13-12.6 19.2z m-742.4-15.8c-4.1-6.4-8-13-11.8-19.7L147 713c3.5 6.2 7.2 12.4 11.1 18.4l-23.7 15z m760.4-12.3l-24.1-14.2c3.6-6.1 7.2-12.5 10.5-18.8l24.8 13c-3.6 6.7-7.3 13.5-11.2 20z m15.9-29.3l-25.1-12.4c3.2-6.4 6.2-13 9-19.5l25.7 11.1c-3 6.9-6.2 13.9-9.6 20.8z m13.7-30.5l-26-10.5c2.7-6.6 5.2-13.4 7.5-20.2l26.5 9.1c-2.5 7.2-5.2 14.5-8 21.6z m11.3-31.5l-26.7-8.5c2.2-6.8 4.2-13.7 6-20.6l27.1 7.1c-2 7.3-4.1 14.7-6.4 22z m8.9-32.1l-27.2-6.4c1.6-6.9 3.1-14 4.4-21l27.5 5c-1.4 7.4-3 14.9-4.7 22.4z m6.4-32.8l-27.7-4.4c1.1-7 2.1-14.2 2.8-21.3l27.8 3c-0.7 7.6-1.7 15.2-2.9 22.7z m4-33.1l-27.9-2.3c0.6-7.1 1-14.3 1.2-21.5l28 0.9c-0.2 7.7-0.7 15.4-1.3 22.9z m1.5-33.3l-28-0.2v-3.6c0-6-0.1-12-0.4-17.9l28-1.2c0.3 6.3 0.4 12.7 0.4 19.1v3.8z m-28.9-31.4c-0.5-7.1-1.1-14.3-1.9-21.4l27.8-3.2c0.9 7.5 1.6 15.2 2.1 22.8l-28 1.8z m-3.2-31.1c-1-7.1-2.2-14.2-3.5-21.2l27.5-5.3c1.4 7.5 2.7 15.1 3.8 22.6l-27.8 3.9z m-5.5-30.8c-1.5-7-3.2-14-5.1-20.9l27-7.4c2 7.3 3.8 14.8 5.5 22.3l-27.4 6z m-7.8-30.2c-2-6.8-4.3-13.7-6.7-20.4l26.4-9.4c2.5 7.2 4.9 14.5 7.1 21.8l-26.8 8z m-10-29.6c-2.6-6.7-5.3-13.3-8.2-19.9l25.6-11.3c3.1 7 6 14.1 8.7 21.2l-26.1 10z m-12.3-28.7c-3-6.4-6.3-12.9-9.7-19.2l24.7-13.2c3.6 6.7 7.1 13.6 10.3 20.5l-25.3 11.9zM874.4 302c-3.5-6.2-7.2-12.4-11.1-18.4l23.6-15c4.1 6.4 8.1 13 11.8 19.6L874.4 302zM117.4 717.4c-1.8-3.3-3.5-6.7-5.2-10.1l25-12.6c1.6 3.1 3.2 6.3 4.9 9.4l-24.7 13.3z"  /><path fill="#51E886" d="M283.8 811.7c-9.3-6.8-18.3-14.2-26.9-21.9l31.9-35.8c7.5 6.7 15.5 13.1 23.6 19.1l-28.6 38.6zM244.2 778c-8.3-8-16.2-16.6-23.7-25.3l36.5-31.2c6.6 7.7 13.5 15.1 20.8 22.1L244.2 778z m-34.7-38.8c-7.1-9.1-13.8-18.6-20.1-28.3l40.4-26c5.5 8.5 11.4 16.8 17.6 24.7l-37.9 29.6z m-29.1-43.1c-5.8-10-11.2-20.3-16.1-30.8l43.5-20.2c4.2 9.1 9 18.2 14 26.9l-41.4 24.1z m-23-46.6c-4.4-10.7-8.3-21.7-11.7-32.7l45.9-14.1c3 9.6 6.4 19.2 10.2 28.5l-44.4 18.3z m-16.5-49.4c-2.9-11.1-5.3-22.6-7.1-33.9l47.4-7.7c1.6 9.9 3.7 19.9 6.2 29.7l-46.5 11.9z m-9.5-51.1c-1.3-11.4-2.1-23.1-2.4-34.6l48-1.2c0.3 10.1 1 20.3 2.1 30.3l-47.7 5.5z m45.5-51l-48-0.9c0.2-11.5 1-23.2 2.2-34.6l47.7 5.2c-1 10-1.7 20.2-1.9 30.3z m4-45.4l-47.4-7.4c1.8-11.4 4.1-22.8 6.9-34l46.6 11.7c-2.6 9.8-4.6 19.8-6.1 29.7z m10-44.3l-46-13.8c3.3-11 7.2-22.1 11.5-32.8l44.5 17.9c-3.7 9.4-7.1 19.1-10 28.7z m16-42.6l-43.7-20c4.8-10.5 10.1-20.9 15.9-30.9l41.7 23.9c-5 8.8-9.7 17.9-13.9 27z m605.9-3.9c-4.3-9.1-9.1-18.1-14.2-26.8l41.3-24.4c5.9 9.9 11.3 20.2 16.3 30.7l-43.4 20.5z m-584.1-36.1L188.1 300c6.2-9.7 12.9-19.3 19.9-28.4l38 29.3c-6.1 8-11.9 16.3-17.3 24.8z m561.9-3.5c-5.5-8.4-11.5-16.7-17.7-24.6l37.7-29.8c7.1 9 14 18.5 20.3 28.2l-40.3 26.2z m-535-33.1l-36.7-31c7.4-8.8 15.4-17.4 23.6-25.5l33.7 34.2c-7.1 7.1-14.1 14.6-20.6 22.3z m507.6-3.3c-6.6-7.6-13.6-15-20.9-22l33.3-34.6c8.3 8 16.3 16.5 23.9 25.2l-36.3 31.4z m-475.9-29.4l-32.1-35.7c8.6-7.7 17.6-15.1 26.8-22l28.8 38.4c-8.2 6-16 12.5-23.5 19.3z m443.8-2.8c-7.6-6.7-15.5-13-23.7-19l28.3-38.8c9.3 6.8 18.4 14.1 27.1 21.7l-31.7 36.1zM323 228.3l-27-39.7c9.5-6.5 19.5-12.6 29.5-18.2l23.3 42c-8.7 4.9-17.4 10.2-25.8 15.9z m372-2.4c-8.4-5.6-17.2-10.8-26-15.6l22.8-42.3c10.1 5.5 20.2 11.5 29.8 17.8L695 225.9z m-332.7-20.6l-21.4-43c10.3-5.1 21-9.9 31.7-14L390 193c-9.4 3.7-18.7 7.8-27.7 12.3z m293.1-1.9c-9.1-4.4-18.5-8.4-27.9-11.9l16.8-45c10.8 4 21.6 8.6 31.9 13.6l-20.8 43.3z m-251.2-15.5l-15.3-45.5c10.9-3.7 22.2-6.9 33.4-9.5l11.1 46.7c-9.8 2.3-19.6 5.1-29.2 8.3z m209-1.4c-9.6-3.1-19.4-5.8-29.3-8l10.5-46.8c11.3 2.5 22.5 5.6 33.5 9.1l-14.7 45.7z m-165-10.1l-8.9-47.2c11.3-2.1 22.9-3.8 34.3-4.9l4.6 47.8c-10 1-20.1 2.4-30 4.3z m120.8-0.8c-9.9-1.7-20-3-30.1-3.9l4-47.8c11.5 1 23.1 2.5 34.4 4.4l-8.3 47.3z m-75.6-4.6l-2.5-47.9c11.5-0.6 23.2-0.7 34.7-0.2l-1.8 48c-10.1-0.5-20.4-0.4-30.4 0.1z"  /><path fill="#51E886" d="M512.6 455.5c-30.9 0-56.2 25.3-56.2 56.2 0 30.9 25.3 56.2 56.2 56.2 30.9 0 56.2-25.3 56.2-56.2 0-31-25.4-56.2-56.2-56.2zM712 315l-39.3 39.3c39.3 39.3 64.7 95.5 64.7 160.1 0 59-22.5 115.2-61.8 154.5l39.3 39.3c47.7-50.5 75.8-118 75.8-193.7 2.8-78.6-28.1-149-78.7-199.5z"  /><path fill="#51E886" d="M636.1 393.7L596.9 433c19.7 19.7 33.7 47.7 33.7 78.7 0 28-11.2 56.2-28 75.8l39.3 39.3c28-30.9 45-70.2 45-115.2-3-44.9-22.6-87-50.8-117.9z m-280.8-42.2l-42.2-39.3c-50.5 50.5-81.5 120.7-81.5 199.4 0 75.8 30.9 143.2 78.7 193.9l39.3-39.3c-39.3-39.3-61.8-95.5-61.8-154.5 0.1-61.8 25.4-118 67.5-160.2z"  /><path fill="#51E886" d="M394.7 390.9c-30.9 30.9-50.5 73-50.5 120.7 0 45 16.8 84.2 45 115.2l39.3-39.3c-16.8-19.7-28-47.7-28-75.8 0-30.9 14-59 33.7-78.7l-39.5-42.1z"  /></svg>